<?xml version="1.0" standalone="no"?>
<!DOCTYPE svg PUBLIC "-//W3C//DTD SVG 20010904//EN"
 "http://www.w3.org/TR/2001/REC-SVG-20010904/DTD/svg10.dtd">
<svg version="1.0" xmlns="http://www.w3.org/2000/svg"
 width="1280.000000pt" height="937.000000pt" viewBox="0 0 1280.000000 937.000000"
 preserveAspectRatio="xMidYMid meet">
<metadata>
Created by potrace 1.15, written by Peter Selinger 2001-2017
</metadata>
<g transform="translate(0.000000,937.000000) scale(0.100000,-0.100000)"
fill="#000000" stroke="none">
<path d="M7028 9360 c-82 -15 -144 -40 -201 -81 -84 -59 -149 -72 -352 -72
-93 1 -269 9 -390 19 -142 12 -322 18 -505 18 -264 0 -291 -1 -365 -22 -141
-39 -301 -134 -325 -192 -21 -50 -104 -66 -420 -80 -292 -13 -420 -40 -546
-116 -214 -130 -377 -165 -989 -214 -519 -42 -628 -70 -780 -199 -245 -207
-408 -286 -765 -371 -465 -109 -546 -151 -653 -337 -89 -156 -225 -275 -436
-382 -186 -95 -195 -113 -80 -156 63 -24 88 -44 57 -46 -261 -10 -330 -44
-241 -118 50 -41 156 -84 283 -115 58 -14 161 -39 229 -55 139 -34 224 -70
248 -107 15 -23 14 -26 -7 -49 -22 -24 -54 -37 -171 -69 -95 -27 -198 -137
-199 -213 0 -32 34 -63 70 -63 40 0 52 -25 33 -66 -36 -75 17 -115 162 -122
106 -5 174 10 280 59 69 33 70 33 35 37 -19 1 -87 -1 -150 -6 -130 -11 -178
-3 -111 16 75 23 65 47 -40 88 -101 40 -98 48 10 41 208 -15 407 -76 433 -132
31 -68 -65 -125 -333 -199 -96 -27 -175 -50 -177 -51 -1 -1 111 -2 250 -1
l253 1 58 -27 c153 -72 54 -166 -235 -224 -49 -10 -88 -21 -88 -24 0 -4 105
-6 233 -6 203 1 236 -1 264 -17 91 -49 59 -136 -64 -170 -68 -19 -313 -35
-298 -19 6 5 61 25 123 43 62 18 121 38 130 45 43 31 -216 31 -276 0 -99 -51
-67 -174 51 -191 23 -4 137 -5 254 -3 224 3 245 0 224 -40 -22 -41 -74 -50
-246 -41 -85 4 -128 -15 -152 -67 -35 -72 13 -93 217 -93 227 -1 332 -27 338
-82 7 -56 -95 -108 -350 -180 -65 -18 -117 -34 -115 -35 2 -2 72 6 157 17 187
24 335 28 368 10 66 -36 -26 -87 -242 -136 -62 -14 -11 -15 137 -4 86 6 168 8
183 5 25 -7 26 -8 9 -26 -38 -42 -166 -77 -329 -90 -114 -10 -160 -27 -154
-58 2 -10 21 -23 43 -30 49 -17 123 -11 278 22 149 32 235 40 272 26 29 -11
29 -12 10 -26 -10 -8 -85 -35 -165 -60 -221 -70 -400 -144 -348 -144 39 0 266
44 390 76 145 37 194 40 212 12 30 -49 -105 -114 -439 -211 -30 -9 -41 -15
-27 -16 25 -1 438 35 512 45 83 11 34 -7 -146 -52 -249 -63 -334 -105 -334
-166 0 -60 87 -117 192 -127 39 -3 73 -11 75 -17 2 -6 -28 -32 -68 -58 -39
-26 -69 -50 -66 -53 3 -2 50 7 105 20 54 14 144 31 200 38 59 7 99 16 95 22
-9 15 -67 36 -203 72 -170 45 -206 60 -191 79 16 19 141 71 217 91 84 22 125
8 195 -65 111 -115 144 -194 100 -234 -29 -26 -118 -60 -300 -113 -90 -26
-157 -49 -149 -51 7 -1 139 9 293 23 153 14 280 24 281 22 2 -2 -61 -21 -139
-44 -189 -55 -245 -77 -289 -114 -42 -34 -47 -57 -19 -83 17 -16 21 -15 72 19
85 56 164 77 311 83 84 3 128 1 128 -6 0 -26 -287 -109 -392 -114 -32 -2 -58
-6 -58 -9 0 -13 98 -19 286 -19 123 0 194 -4 194 -10 0 -5 -1 -10 -2 -10 -17
-1 -173 -71 -176 -78 -3 -10 80 -32 175 -47 24 -4 45 -10 48 -15 9 -14 -156
-60 -214 -60 -49 0 -61 9 -55 39 5 24 1 30 -27 42 -58 24 -229 15 -229 -12 0
-6 24 -32 53 -59 30 -27 68 -75 85 -107 62 -117 82 -125 316 -121 195 3 246
-6 246 -43 0 -29 -36 -58 -80 -65 -75 -12 -68 -19 98 -89 75 -32 56 -44 -140
-85 -197 -42 -301 -70 -313 -82 -7 -7 42 -8 160 -2 280 15 354 11 411 -17 56
-27 87 -78 88 -142 l1 -39 -177 -76 c-98 -41 -178 -79 -178 -83 0 -10 54 -5
302 25 97 12 175 20 173 16 -2 -3 -101 -48 -220 -100 -118 -52 -211 -96 -205
-98 6 -2 79 5 163 17 194 26 299 34 313 24 17 -12 74 -163 74 -196 0 -39 -47
-57 -148 -57 -105 0 -173 -10 -179 -27 -9 -24 6 -59 65 -149 71 -108 144 -176
207 -194 45 -12 138 -10 258 6 31 5 47 3 47 -4 0 -6 -44 -37 -97 -68 -53 -31
-119 -79 -146 -106 -43 -43 -48 -52 -45 -86 2 -31 9 -40 38 -55 31 -16 52 -17
186 -11 83 3 161 3 173 -1 61 -19 -14 -68 -130 -84 -56 -8 -78 -15 -91 -32
-23 -28 -23 -41 3 -72 28 -37 104 -57 211 -57 114 0 130 -8 122 -60 -7 -40 7
-62 62 -98 20 -14 -1 -13 -154 7 -35 4 -65 4 -68 -1 -3 -4 -1 -8 5 -8 5 0 23
-12 40 -26 35 -29 40 -61 15 -100 -27 -41 -7 -49 73 -30 99 25 143 5 188 -84
55 -108 267 -242 470 -296 65 -18 244 -17 370 1 140 20 409 71 910 175 458 94
986 196 1200 231 212 35 236 32 583 -52 209 -51 623 -164 1027 -279 983 -281
1164 -327 1340 -337 182 -10 300 31 399 137 93 101 148 215 256 526 129 373
286 777 605 1559 262 642 718 1833 1495 3900 120 319 237 639 260 710 190 587
116 817 -333 1030 -109 52 -273 113 -562 210 -257 87 -345 129 -389 188 -19
26 -21 42 -22 210 0 162 -3 190 -23 251 -31 92 -85 146 -216 213 -115 59 -215
96 -335 125 -77 19 -111 21 -350 19 -333 -3 -840 25 -1480 79 -539 46 -815 79
-1145 135 -110 18 -256 41 -325 50 -148 19 -425 28 -492 15z m423 -161 c251
-42 579 -124 1194 -300 408 -116 522 -150 1445 -426 1452 -433 1966 -606 2217
-746 178 -99 279 -238 290 -396 23 -324 -253 -1152 -1135 -3406 -99 -253 -289
-737 -422 -1075 -365 -929 -685 -1757 -780 -2020 -62 -173 -117 -304 -171
-413 -99 -199 -107 -202 -434 -202 -236 1 -326 11 -610 67 -220 43 -358 81
-880 242 -549 169 -739 227 -1825 556 -1025 311 -1672 512 -1855 576 -191 68
-313 152 -362 252 -24 49 -28 69 -27 137 1 98 -11 65 276 780 124 308 395 994
603 1525 743 1900 872 2228 1173 2980 588 1469 710 1740 829 1833 77 61 250
74 474 36z m1060 -88 c460 -51 1355 -130 1989 -176 344 -25 499 -56 599 -119
55 -35 108 -101 128 -160 34 -98 20 -362 -22 -396 -13 -11 -111 15 -700 189
-1169 344 -2176 658 -2191 683 -4 6 -3 8 3 5 5 -3 92 -15 194 -26z m-2471 -6
c392 -22 597 -37 612 -46 10 -6 10 -19 1 -62 -19 -89 -150 -407 -250 -609 -83
-166 -98 -190 -136 -215 -80 -54 -167 -220 -252 -478 -73 -223 -70 -246 21
-148 29 32 55 55 58 52 9 -9 -2 -39 -329 -874 -582 -1487 -816 -2075 -827
-2075 -46 -1 5 2529 72 3510 30 430 77 780 120 876 20 46 47 60 144 74 89 13
491 10 766 -5z m-1260 -236 c82 -17 87 -33 67 -187 -48 -358 -104 -1429 -172
-3297 -49 -1335 -73 -1584 -190 -1905 -8 -25 -66 -159 -128 -299 l-112 -254
-7 184 c-10 280 -29 558 -88 1329 -91 1189 -200 3209 -202 3740 -2 517 42 641
244 685 79 17 513 20 588 4z m-1046 -326 c35 -327 240 -3352 306 -4503 33
-596 43 -891 37 -1203 -4 -249 -9 -318 -25 -392 -19 -87 -108 -397 -121 -422
-7 -12 -69 185 -188 592 -106 364 -323 1110 -473 1630 -78 270 -181 627 -230
795 -49 168 -148 510 -220 760 -73 250 -179 617 -237 815 -260 892 -287 994
-340 1264 -36 184 -39 382 -6 453 39 86 84 98 548 143 221 22 592 70 760 99
198 34 181 36 189 -31z m-1738 -461 c21 -13 335 -1064 994 -3317 464 -1588
806 -2769 935 -3235 117 -420 206 -683 286 -843 20 -39 54 -83 92 -119 68 -63
68 -76 0 -99 -51 -16 -115 -4 -193 37 -79 41 -185 145 -195 190 -18 83 -51
160 -217 499 -240 491 -423 869 -825 1709 -183 384 -392 813 -462 955 -172
343 -370 764 -711 1511 -280 613 -516 1120 -628 1350 -287 590 -354 809 -283
926 13 21 47 45 107 76 220 113 728 294 979 349 92 20 106 21 121 11z m4271
-99 c-13 -81 -100 -213 -139 -213 -18 0 -20 4 -14 33 15 76 108 217 143 217
12 0 14 -8 10 -37z m-5582 -743 c38 -15 26 -34 -28 -44 -51 -9 -141 3 -141 19
-2 26 119 44 169 25z m-375 -211 c27 -6 50 -14 50 -19 0 -15 -32 -20 -128 -20
-127 0 -158 19 -68 41 46 11 89 10 146 -2z m353 -52 c91 -42 73 -67 -51 -67
-70 0 -117 19 -127 50 -18 57 72 66 178 17z m290 -363 c3 -4 0 -19 -8 -35 -31
-59 -15 -93 58 -124 20 -8 37 -18 37 -22 0 -12 -147 6 -286 35 -130 28 -223
57 -213 67 3 2 49 11 104 19 55 9 138 26 185 40 91 26 113 30 123 20z m1622
-3474 c9 -7 12 -17 8 -21 -25 -25 -199 -21 -190 4 10 32 149 45 182 17z m622
-1341 c22 -8 24 -12 13 -19 -21 -14 -227 -13 -235 1 -10 15 -4 18 46 29 50 10
134 5 176 -11z m918 -119 c57 -35 115 -174 115 -276 0 -317 140 -495 439 -559
36 -8 157 -20 269 -27 111 -7 202 -15 202 -18 0 -8 -424 -99 -512 -110 -81
-10 -161 -2 -219 23 -50 21 -117 99 -154 181 -82 177 -216 728 -192 790 8 20
13 20 52 -4z m-835 -22 c20 -7 22 -11 10 -18 -20 -13 -227 -13 -235 -1 -20 33
148 47 225 19z m1275 -137 c112 -52 171 -199 145 -364 -18 -118 -63 -177 -133
-177 -51 0 -120 40 -136 77 -41 102 -41 388 0 465 13 24 72 23 124 -1z m-1091
-137 c9 -3 16 -12 16 -19 0 -7 -7 -16 -16 -19 -25 -9 -157 -7 -174 4 -36 23
122 54 174 34z m1683 -100 c127 -23 233 -47 658 -151 83 -20 153 -39 158 -43
9 -8 -226 -52 -403 -77 -89 -12 -196 -17 -375 -17 -293 -1 -318 4 -350 69 -20
42 -32 146 -21 190 15 60 119 69 333 29z m768 -327 c10 -8 15 -19 12 -25 -16
-25 -192 -23 -192 3 0 29 146 46 180 22z m426 -25 c-14 -9 -85 -43 -158 -76
-74 -32 -132 -64 -130 -70 2 -6 19 -12 38 -13 115 -9 140 -14 128 -29 -43 -53
-923 -254 -1110 -254 -66 0 -75 14 -25 38 53 26 324 96 549 142 32 6 57 14 55
16 -7 7 -475 -46 -683 -77 -110 -17 -233 -35 -273 -41 -51 -8 -76 -8 -83 -1
-24 24 204 84 667 173 632 123 971 191 999 199 45 14 53 12 26 -7z m310 -120
l22 -19 -33 -11 c-54 -19 -174 -10 -167 12 11 34 141 47 178 18z m-1773 -350
c43 -9 42 -25 -3 -34 -86 -18 -271 -38 -302 -32 -70 13 -19 58 85 74 56 8 157
5 220 -8z"/>
<path d="M6981 8773 c-108 -131 -263 -623 -197 -623 24 0 55 48 131 205 118
243 157 364 141 429 -9 37 -39 33 -75 -11z"/>
<path d="M7231 8723 c-120 -123 -211 -322 -219 -483 -5 -102 9 -164 44 -186
44 -29 102 2 220 120 143 143 197 255 197 411 1 126 -51 205 -135 205 -36 0
-47 -7 -107 -67z m127 -87 c4 -47 -27 -150 -83 -279 -77 -174 -95 -183 -95
-47 0 130 46 272 110 340 39 42 64 37 68 -14z"/>
<path d="M8435 8196 c-16 -7 -73 -48 -125 -90 -94 -76 -190 -144 -405 -288
-135 -90 -159 -121 -152 -198 3 -30 26 -117 51 -192 55 -167 93 -334 101 -448
8 -92 24 -130 56 -130 29 0 112 44 201 107 83 58 608 470 646 507 l24 23 -61
194 c-82 264 -103 323 -142 402 -55 114 -114 148 -194 113z"/>
<path d="M6768 7791 c-86 -55 -184 -216 -195 -324 -8 -80 38 -176 95 -198 52
-20 129 44 190 159 40 75 62 164 62 248 0 136 -54 177 -152 115z"/>
<path d="M11205 7449 c-62 -33 -229 -150 -346 -241 -344 -270 -448 -354 -449
-366 0 -15 244 -722 260 -752 24 -45 77 -13 404 242 234 182 343 282 375 345
30 60 28 156 -8 328 -58 280 -95 396 -138 439 -31 32 -47 32 -98 5z"/>
<path d="M9285 6897 c-33 -18 -109 -66 -168 -107 -147 -100 -532 -409 -530
-423 1 -7 23 -111 48 -232 81 -385 132 -565 160 -565 39 0 525 381 647 508
108 112 128 183 108 387 -24 253 -53 383 -96 435 -36 42 -88 41 -169 -3z"/>
<path d="M7649 6385 c-25 -8 -84 -38 -132 -67 -122 -74 -517 -366 -517 -383 0
-20 167 -505 206 -600 20 -47 53 -104 76 -129 35 -41 44 -46 81 -46 54 0 97
25 230 133 58 47 177 133 265 190 87 58 165 116 174 129 38 58 32 125 -33 363
-103 379 -176 463 -350 410z"/>
<path d="M10465 5760 c-74 -39 -144 -89 -444 -316 -151 -114 -250 -196 -251
-206 0 -27 135 -515 169 -608 41 -111 81 -184 105 -188 25 -5 232 136 427 292
340 271 375 322 349 508 -23 172 -90 377 -152 469 -58 86 -110 98 -203 49z"/>
<path d="M7015 4608 c-171 -37 -649 -379 -700 -502 -21 -49 -19 -90 10 -203
13 -54 41 -181 61 -283 40 -204 75 -326 102 -360 18 -22 19 -22 53 -5 45 23
207 138 344 244 306 237 345 287 345 446 0 171 -60 492 -113 609 -27 59 -42
67 -102 54z"/>
<path d="M9769 3991 c-89 -35 -185 -110 -514 -400 -121 -107 -219 -199 -217
-205 9 -34 275 -762 281 -768 10 -11 560 395 642 474 82 79 109 132 109 214 0
54 -54 379 -81 482 -48 188 -111 247 -220 203z"/>
<path d="M8048 3577 c-22 -7 -52 -29 -74 -55 -42 -50 -130 -110 -299 -207 -66
-37 -140 -82 -165 -98 -62 -42 -160 -137 -171 -165 -6 -15 -2 -55 12 -120 43
-202 188 -670 214 -692 81 -67 688 448 809 687 34 68 12 333 -39 468 -61 164
-156 223 -287 182z"/>
<path d="M6200 2906 c-53 -20 -148 -79 -237 -145 -64 -47 -398 -306 -425 -330
-11 -9 59 -486 87 -598 32 -128 72 -207 106 -211 63 -7 416 231 592 401 184
177 224 328 158 588 -39 152 -65 219 -104 264 -30 34 -39 38 -88 41 -30 2 -70
-2 -89 -10z"/>
<path d="M9078 2241 c-86 -34 -549 -368 -607 -438 -46 -55 -65 -130 -58 -223
22 -283 95 -554 159 -594 24 -15 171 62 320 167 196 138 498 376 493 390 -2 6
-34 138 -71 292 -36 154 -75 303 -85 331 -32 86 -73 106 -151 75z"/>
<path d="M10109 1836 c-90 -24 -225 -120 -254 -181 -22 -47 -16 -98 21 -180
14 -33 35 -79 45 -103 l19 -43 91 77 c169 145 239 242 239 332 0 56 -14 80
-55 98 -40 16 -46 17 -106 0z"/>
<path d="M9588 1150 c-129 -37 -278 -252 -281 -405 -1 -89 58 -169 136 -182
115 -18 259 119 309 295 51 178 -34 329 -164 292z m96 -116 c9 -8 16 -25 16
-37 0 -63 -167 -272 -212 -265 -19 2 -24 10 -26 41 -4 48 31 154 67 204 46 63
122 91 155 57z"/>
<path d="M9949 1013 c-37 -41 -52 -67 -102 -183 -113 -260 -143 -386 -97 -410
18 -10 25 -6 51 21 90 96 228 497 199 575 -12 31 -21 30 -51 -3z"/>
<path d="M5725 8736 c-5 -2 -22 -7 -37 -10 -38 -9 -35 -29 11 -90 22 -28 46
-75 55 -105 43 -148 -8 -483 -94 -613 -60 -91 -129 -97 -245 -22 -84 53 -110
56 -119 14 -7 -39 9 -117 34 -157 11 -18 41 -42 74 -58 95 -46 189 -24 278 68
108 110 162 260 183 507 15 175 20 203 53 265 30 55 48 76 115 124 61 44 67
55 40 66 -19 8 -331 17 -348 11z"/>
<path d="M5474 7338 c-63 -61 -162 -194 -203 -275 -28 -56 -27 -108 5 -163 28
-49 196 -279 204 -280 3 0 38 60 77 133 95 173 117 256 110 406 -5 125 -19
174 -57 213 -42 41 -63 36 -136 -34z"/>
<path d="M4347 8370 c-123 -31 -211 -142 -243 -308 -36 -183 27 -394 140 -471
55 -37 68 -41 164 -51 99 -11 140 -31 156 -80 6 -19 23 -41 38 -50 25 -13 29
-13 44 2 38 38 36 225 -5 548 -32 248 -64 349 -123 393 -31 23 -112 31 -171
17z m133 -188 c52 -52 50 -180 -3 -217 -12 -8 -40 -15 -63 -15 -126 0 -126
-126 0 -254 63 -65 72 -92 29 -82 -165 39 -256 385 -141 532 54 68 130 83 178
36z"/>
<path d="M4364 7161 c-43 -26 -118 -115 -154 -182 -40 -75 -40 -128 -1 -203
46 -86 119 -196 136 -202 35 -14 67 9 133 92 80 102 122 176 129 233 8 55 -41
155 -112 228 -57 59 -80 65 -131 34z"/>
<path d="M3040 7990 c-47 -47 -86 -106 -160 -244 l-52 -98 -59 108 c-40 75
-75 124 -110 157 -79 74 -132 60 -117 -31 5 -26 53 -191 120 -407 44 -145 95
-240 162 -303 31 -30 62 -52 69 -49 21 6 19 95 -4 200 -23 108 -21 167 7 198
44 49 119 -7 213 -160 33 -54 78 -114 101 -134 67 -62 120 -44 120 40 0 67
-54 169 -150 283 -93 110 -130 174 -130 226 0 23 15 66 40 115 48 94 53 139
15 139 -16 0 -40 -15 -65 -40z"/>
<path d="M3142 6849 c-49 -25 -72 -53 -114 -146 -21 -46 -32 -90 -36 -135 -4
-59 -2 -72 22 -112 32 -55 170 -162 222 -172 55 -10 81 8 115 79 39 85 62 197
54 267 -19 172 -147 278 -263 219z"/>
<path d="M1339 7454 c-11 -14 -14 -56 -13 -188 2 -258 47 -565 104 -719 24
-65 32 -72 60 -57 29 16 41 45 51 123 11 83 37 131 90 157 79 41 171 20 249
-54 123 -118 156 -94 81 60 -165 342 -552 763 -622 678z m162 -217 c43 -28
122 -143 149 -214 29 -78 26 -109 -14 -149 -55 -55 -110 -44 -147 29 -59 115
-79 357 -30 357 4 0 23 -10 42 -23z"/>
<path d="M1809 6379 c-31 -31 -66 -114 -80 -189 -10 -57 -9 -74 6 -125 14 -51
27 -70 90 -132 129 -126 182 -155 218 -115 24 26 86 168 103 234 19 71 8 116
-40 180 -34 44 -138 133 -183 157 -35 18 -90 14 -114 -10z"/>
<path d="M5794 751 c-90 -22 -59 -41 68 -41 53 0 103 3 112 6 66 25 -92 55
-180 35z"/>
<path d="M174 6799 c-13 -22 24 -31 176 -42 56 -3 47 -15 -75 -100 -15 -11
-24 -21 -22 -23 2 -3 49 7 103 21 55 13 145 30 202 37 60 7 101 17 99 23 -5
15 -118 51 -234 74 -110 23 -238 28 -249 10z"/>
<path d="M900 5930 c-92 -19 -170 -47 -170 -60 0 -31 286 -24 372 9 59 23 84
43 73 61 -10 16 -181 11 -275 -10z"/>
<path d="M1405 5129 c-83 -12 -171 -43 -230 -82 l-50 -32 65 -3 c97 -5 261 33
388 90 l47 21 -45 8 c-56 9 -99 9 -175 -2z"/>
<path d="M1928 4058 c-31 -11 -36 -23 -12 -32 30 -12 150 -6 169 8 18 13 18
14 -3 25 -25 13 -117 13 -154 -1z"/>
<path d="M2302 2864 c-15 -10 -22 -25 -22 -48 0 -53 53 -86 105 -66 55 21 68
60 34 104 -24 31 -81 36 -117 10z"/>
<path d="M2545 2511 c-68 -14 -25 -26 104 -29 136 -3 181 7 127 28 -29 11
-182 12 -231 1z"/>
<path d="M2848 2020 c-80 -24 -50 -38 82 -39 124 -1 161 19 73 40 -46 10 -118
10 -155 -1z"/>
</g>
</svg>
